# xmcd
#
# Track frame offsets:
#	150
#	19630
#	38915
#	57359
#	71061
#	92031
#	114377
#	140501
#	168513
#	184106
#	224222
#	242876
#	261285
#
# Disc length: 3835 seconds
#
# Revision: 1
# Processed by: cddbd v1.5.2PL0 Copyright (c) Steve Scherf et al.
# Submitted via: audiograbber 1.83.01
#
DISCID=c50ef90d
DTITLE=The Bottles - Overdrive
DYEAR=2011
DGENRE=Blues
TTITLE0=Trouble
TTITLE1=My Pride and Joy
TTITLE2=Locking At The River
TTITLE3=Strange Fruit
TTITLE4=You Dont Know My Mind
TTITLE5=Kiss
TTITLE6=Dont Be Cruel
TTITLE7=Come Back Baby
TTITLE8=C.C. Rider
TTITLE9=Johnny B. Goode
TTITLE10=Mexico
TTITLE11=Loco
TTITLE12=Gimme Some Lovin
EXTD=
EXTT0=
EXTT1=
EXTT2=
EXTT3=
EXTT4=
EXTT5=
EXTT6=
EXTT7=
EXTT8=
EXTT9=
EXTT10=
EXTT11=
EXTT12=
PLAYORDER=
